<svg width="20" height="20" viewBox="0 0 20 20" fill="none" xmlns="http://www.w3.org/2000/svg">
<path d="M5.49999 3.72909V12.6388C5.49986 13.5204 5.82163 14.369 6.40004 15.0125C6.97845 15.656 7.77019 16.0463 8.61466 16.1041L8.83332 16.111H14.7187C14.5808 16.5172 14.3255 16.8688 13.9879 17.1175C13.6502 17.3663 13.2469 17.4999 12.8333 17.4999H8.16666C7.10579 17.4999 6.08838 17.0609 5.33823 16.2795C4.58808 15.4981 4.16666 14.4383 4.16666 13.3333V5.69436C4.16644 5.26335 4.29456 4.84289 4.53336 4.4909C4.77216 4.13892 5.10989 3.87275 5.49999 3.72909ZM15.5 0.833252C16.0304 0.833252 16.5391 1.05275 16.9142 1.44345C17.2893 1.83415 17.5 2.36405 17.5 2.91659V12.6388C17.5 13.1913 17.2893 13.7212 16.9142 14.1119C16.5391 14.5026 16.0304 14.7221 15.5 14.7221H8.83332C8.30289 14.7221 7.79418 14.5026 7.41911 14.1119C7.04404 13.7212 6.83332 13.1913 6.83332 12.6388V2.91659C6.83332 2.36405 7.04404 1.83415 7.41911 1.44345C7.79418 1.05275 8.30289 0.833252 8.83332 0.833252H15.5Z" fill="#101615"/>
</svg>
