<svg width="42" height="42" viewBox="0 0 42 42" fill="none" xmlns="http://www.w3.org/2000/svg">
<path d="M18.0437 1.37113C15.2202 2.83729 12.4418 4.33367 11.9612 4.62085C11.6609 4.80223 11.6609 4.80223 11.9612 5.02896C12.592 5.49752 17.6832 7.99149 18.0136 7.99149C18.1939 7.99149 18.9448 7.68919 19.6657 7.32643L20.9873 6.66137L22.399 7.41712C23.3752 7.93103 23.9159 8.12752 24.1562 8.06706C24.9221 7.88568 30.4338 5.2708 30.4789 5.08942C30.4939 4.9685 30.0584 4.65108 29.4276 4.33367C28.8269 4.01625 27.6254 3.38142 26.7543 2.91286C25.8833 2.4443 24.3964 1.65832 23.4503 1.15953C22.5041 0.645617 21.6631 0.177052 21.588 0.116592C21.2426 -0.185707 20.5367 0.0561333 18.0437 1.37113Z" fill="white"/>
<path d="M5.39823 7.97619L2.80005 9.32142L2.81507 15.2314C2.81507 18.4811 2.86012 21.1867 2.9202 21.232C3.01031 21.3227 6.26929 19.9624 7.87626 19.1461L8.7323 18.7229V15.7755C8.7323 14.1582 8.77736 12.8281 8.85245 12.8281C8.91252 12.8281 9.09275 12.9188 9.25795 13.0246C9.42315 13.1455 10.2341 13.599 11.0602 14.0373C11.8862 14.4756 13.0426 15.0953 13.6433 15.4279L14.7246 16.0174L15.6257 15.6244C16.5268 15.2465 16.8272 15.1105 19.4404 13.9013C20.2364 13.5385 20.747 13.2211 20.717 13.1002C20.6419 12.8886 20.3115 12.6921 17.518 11.2108C13.5232 9.0947 8.5671 6.63096 8.28175 6.63096C8.13157 6.63096 6.82497 7.23556 5.39823 7.97619Z" fill="white"/>
<path d="M32.3863 7.62863C31.5602 8.00651 30.4489 8.52042 29.9082 8.77737C29.3676 9.03432 28.6467 9.36685 28.3013 9.518C27.9408 9.66915 27.6555 9.86565 27.6555 9.94122C27.6555 10.0924 27.7306 10.1377 30.1635 11.5585C31.0196 12.0422 31.7104 12.4805 31.7104 12.5259C31.7104 12.5712 31.5302 12.6921 31.3049 12.7828C30.7793 12.9944 22.6994 16.6523 21.8734 17.0453C21.3177 17.3173 20.3565 17.7557 18.6444 18.5416C16.632 19.4485 13.1027 21.0507 12.7122 21.217C12.4719 21.3379 11.721 21.6704 11.0602 21.9879C9.54332 22.6831 6.61473 24.0284 5.74367 24.4062C5.38323 24.5574 4.60227 24.9353 4.01656 25.2225L2.95025 25.7515L2.86014 29.2279C2.80007 31.1324 2.81509 32.7648 2.87516 32.8555C2.95025 32.9311 4.01656 33.5206 5.26308 34.1403L7.51584 35.2588L8.3869 34.896C9.24295 34.5484 10.7598 33.8531 12.9074 32.8404C13.5382 32.5381 13.9888 32.2358 13.9437 32.13C13.8986 31.9788 10.6697 30.0441 10.1591 29.8476C10.084 29.8174 10.0389 29.7721 10.084 29.7267C10.1591 29.6663 12.7422 28.4571 13.8386 27.9734C16.4818 26.7944 17.8034 26.2049 22.369 24.1039C25.2075 22.8041 27.5503 21.746 27.5804 21.746C27.6104 21.746 28.1961 21.4891 28.887 21.1716C29.5778 20.8542 32.146 19.6753 34.594 18.5568L39.0544 16.5313L39.0694 12.9038V9.26105L36.7416 8.0972C35.465 7.46237 34.3086 6.93334 34.1584 6.94846C34.0082 6.94846 33.2123 7.25076 32.3863 7.62863Z" fill="white"/>
<path d="M36.2911 21.9122C34.8944 22.5622 33.6779 23.1214 33.6178 23.1365C33.5127 23.1819 33.4226 25.041 33.3775 28.1396L33.3625 29.3186L30.3288 27.7315L27.2801 26.1444L26.5292 26.4165C25.1475 26.9153 21.1976 28.7744 21.2427 28.9105C21.3028 29.0767 27.4753 32.4171 32.4164 34.9262L33.6328 35.561L34.8944 34.9262C35.5852 34.5786 36.8167 33.9286 37.6427 33.4752L39.1446 32.659L39.1896 26.6734C39.2197 21.9273 39.1896 20.6879 39.0395 20.703C38.9343 20.7181 37.7028 21.2472 36.2911 21.9122Z" fill="white"/>
<path d="M22.7143 34.9262L20.9872 35.6819L19.5004 34.9564C17.7583 34.1251 18.1187 34.0798 14.8897 35.5761C13.7784 36.09 12.607 36.604 12.3066 36.7098C11.3604 37.0574 11.4355 37.1481 13.7634 38.4026C16.1813 39.7176 20.7769 42 20.9872 42C21.2725 42 30.659 37.3446 30.659 37.2086C30.659 37.0423 24.937 34.1251 24.6517 34.1402C24.5315 34.1553 23.6605 34.503 22.7143 34.9262Z" fill="white"/>
</svg>
