<svg width="268" height="509" viewBox="0 0 268 509" fill="none" xmlns="http://www.w3.org/2000/svg">
<g clip-path="url(#clip0_138_338)">
<path d="M10.3249 1C10.3249 1 -8.40608 65.7167 10.3249 103.096C22.5717 127.535 32.5798 138.871 54.9816 151.5C81.4352 166.413 102.324 155.86 131.955 162.5C186.396 174.7 280.363 159.733 265.408 213.5C256.168 246.722 220.616 243.571 194.437 266.007C177.973 280.117 164.234 284.909 153.947 304C139.491 330.827 172.057 363.059 151.448 382C121.118 409.874 80.3475 359.288 45.9847 382C5.89544 408.497 11 497 11 497" stroke="white" stroke-dasharray="6 6"/>
<path d="M1 497L11 507L21 497" stroke="white" stroke-width="2"/>
</g>
<defs>
<clipPath id="clip0_138_338">
<rect width="268" height="509" fill="white"/>
</clipPath>
</defs>
</svg>
